<svg width="24" height="24" viewBox="0 0 24 24" xmlns="http://www.w3.org/2000/svg"><title>Shape</title><g id="Page-1" fill="none" fill-rule="evenodd"><path d="M18.034 17.984c1.078 0 1.969.938 1.969 2.016a1.981 1.981 0 0 1-1.969 1.969c-1.078 0-2.016-.891-2.016-1.969s.938-2.016 2.016-2.016zM2.002 2h3.281l.938 1.969h14.813c.563 0 .984.469.984 1.031a.79.79 0 0 1-.141.469l-3.563 6.469a1.973 1.973 0 0 1-1.734 1.031H9.127l-.891 1.641-.047.141c0 .141.094.234.234.234h11.578v2.016h-12c-1.078 0-1.969-.938-1.969-2.016 0-.328.094-.656.234-.938l1.359-2.484-3.609-7.594H2V2h.002zm6 15.984c1.078 0 2.016.938 2.016 2.016s-.938 1.969-2.016 1.969A1.981 1.981 0 0 1 6.033 20c0-1.078.891-2.016 1.969-2.016z" id="Shape" fill="#DF643E" fill-rule="nonzero"/></g></svg>