<svg width="96" height="96" viewBox="0 0 96 96" xmlns="http://www.w3.org/2000/svg"><title>icon_96_bonus</title><g id="Page-B---iOS" fill="none" fill-rule="evenodd"><g id="B4-紅利查詢" transform="translate(-140 -100)"><g id="Group-4" transform="translate(140 100)"><path id="Rectangle-2" d="M0 0h96v96H0z"/><g id="Group-5" transform="translate(2 4)" fill="#DF643E"><path d="M18.53 37.975C7.845 40.955 0 50.818 0 62.526 0 76.595 11.327 88 25.3 88c10.256 0 19.087-6.144 23.059-14.976-16.176-3.902-28.444-17.926-29.829-35.05z" id="Combined-Shape"/><path d="M57.5 69.474C38.446 69.474 23 53.92 23 34.737 23 15.552 38.446 0 57.5 0 76.554 0 92 15.552 92 34.737c0 19.184-15.446 34.737-34.5 34.737zm-7.691-19.732c.435.81 1.366 1.372 2.505 1.372 1.138 0 2.07-.562 2.504-1.372.352-.707.394-1.185.394-2.537v-7.401h5.671c6.128 0 9.73-4.2 9.73-9.23 0-5.032-3.602-9.232-9.73-9.232h-7.948c-.85 0-1.905 0-2.712.811-.807.811-.807 1.871-.807 2.724v22.328c0 1.352.04 1.83.393 2.537zm5.403-15.094v-8.15h5.34c2.608 0 4.264 1.643 4.264 4.075 0 2.412-1.656 4.075-4.264 4.075h-5.34z" id="Combined-Shape"/></g></g></g></g></svg>