<svg width="96" height="96" viewBox="0 0 96 96" xmlns="http://www.w3.org/2000/svg"><title>icon_96_phone_auth</title><g id="Page-A2~A3---iOS" fill="none" fill-rule="evenodd"><g id="A2.2-手機驗證" transform="translate(-140 -100)"><g id="Group-5" transform="translate(140 100)"><path id="Rectangle-8" d="M0 0h96v96H0z"/><g id="Group-3" transform="translate(24 13)" fill="#B0B3B2"><path d="M43.636 0H4.364C1.964 0 0 1.969 0 4.375v61.25C0 68.031 1.964 70 4.364 70h39.272c2.4 0 4.364-1.969 4.364-4.375V4.375C48 1.969 46.036 0 43.636 0zM24 66.841a3.4 3.4 0 0 1-3.395-3.403A3.4 3.4 0 0 1 24 60.034a3.4 3.4 0 0 1 3.395 3.404A3.4 3.4 0 0 1 24 66.84zm19.636-9.966H4.364V8.75h39.272v48.125z" id="Shape"/><circle id="Oval-2" cx="12" cy="32" r="3"/><circle id="Oval-2" cx="20" cy="32" r="3"/><circle id="Oval-2" cx="28" cy="32" r="3"/><circle id="Oval-2" cx="36" cy="32" r="3"/></g></g></g></g></svg>