<svg width="24" height="24" viewBox="0 0 24 24" xmlns="http://www.w3.org/2000/svg"><title>icon_24_fb_login</title><g id="Page-A2~A3---iOS" fill="none" fill-rule="evenodd"><g id="A2-登入頁" transform="translate(-46 -487)"><g id="Group-10" transform="translate(36 477)"><g id="Group-2"><g id="Page-1" transform="translate(10 10)"><path d="M22.675 24c.732 0 1.325-.593 1.325-1.324V1.325C24 .593 23.407 0 22.675 0H1.325C.593 0 0 .593 0 1.325v21.35C0 23.408.593 24 1.325 24h21.35z" id="Fill-1" fill="#FFF"/><path d="M17.14 24v-9.123h3.243l.486-3.555h-3.73v-2.27c0-1.03.304-1.731 1.867-1.731L21 7.32V4.14A28.246 28.246 0 0 0 18.094 4c-2.874 0-4.843 1.657-4.843 4.7v2.622H10v3.555h3.251V24h3.889z" id="Fill-4" fill="#3C5999"/></g></g></g></g></g></svg>