<svg width="24" height="24" viewBox="0 0 24 24" xmlns="http://www.w3.org/2000/svg"><title>icon_24_service_mail</title><g id="Page-B---iOS" fill="none" fill-rule="evenodd"><g id="B6.1-客服專區---聯絡我們" transform="translate(-16 -258)"><g id="Group-4" transform="translate(16 142)"><g id="Group-6" transform="translate(0 116)"><g id="Group"><path id="Rectangle-2" d="M0 0h24v24H0z"/><path d="M22.999 9.482v9.586c0 .532-.193.987-.577 1.365a1.907 1.907 0 0 1-1.387.567H2.965c-.54 0-1.002-.19-1.387-.567a1.845 1.845 0 0 1-.577-1.365V9.482c.36.395.774.745 1.24 1.05 2.963 1.981 4.996 3.37 6.101 4.166.467.338.845.602 1.136.791.29.19.677.383 1.16.58.483.197.933.295 1.35.296h.025c.418 0 .868-.099 1.35-.296.483-.198.87-.39 1.16-.58.292-.189.67-.452 1.136-.79 1.391-.99 3.43-2.379 6.113-4.166A6.719 6.719 0 0 0 23 9.483h-.001zm0-3.55c0 .637-.2 1.244-.602 1.824-.4.579-.9 1.074-1.498 1.484l-5.744 3.924-.522.369c-.266.189-.487.342-.663.459a12.58 12.58 0 0 1-.638.392c-.25.145-.486.253-.706.326-.221.072-.426.109-.614.109h-.025c-.188 0-.393-.037-.614-.11a3.775 3.775 0 0 1-.706-.325 12.58 12.58 0 0 1-.639-.392 25.19 25.19 0 0 1-.662-.46c-.266-.189-.44-.311-.522-.368-.745-.515-1.817-1.25-3.216-2.203-1.4-.954-2.239-1.527-2.517-1.72-.507-.339-.986-.804-1.436-1.395C1.225 7.254 1 6.704 1 6.197c0-.628.17-1.15.51-1.569C1.848 4.21 2.333 4 2.963 4h18.07c.531 0 .992.19 1.38.567.389.378.583.833.583 1.365H23z" id="Shape" fill="#DF643E"/></g></g></g></g></g></svg>