<svg width="96" height="96" viewBox="0 0 96 96" xmlns="http://www.w3.org/2000/svg"><title>icon_96_phone_number</title><g id="Page-A2~A3---iOS" fill="none" fill-rule="evenodd"><g id="A5-FB-&amp;-LINE-註冊---手機驗證" transform="translate(-140 -100)"><g id="Group-5" transform="translate(140 100)"><path id="Rectangle-8" d="M0 0h96v96H0z"/><path d="M67.636 13H28.364C25.964 13 24 14.969 24 17.375v61.25C24 81.031 25.964 83 28.364 83h39.272c2.4 0 4.364-1.969 4.364-4.375v-61.25C72 14.969 70.036 13 67.636 13zM48 79.841a3.4 3.4 0 0 1-3.395-3.403A3.4 3.4 0 0 1 48 73.034a3.4 3.4 0 0 1 3.395 3.403A3.4 3.4 0 0 1 48 79.841zm19.636-9.966H28.364V21.75h39.272v48.125z" id="Shape" fill="#B0B3B2"/></g></g></g></svg>