<svg width="64" height="64" viewBox="0 0 64 64" xmlns="http://www.w3.org/2000/svg" xmlns:xlink="http://www.w3.org/1999/xlink"><title>icon_64_member_record</title><defs><path d="M18.962 24.852l-.18-1.281c-.078-.551-.453-.693-.838-.317l-2.857 2.787c-.385.375-.314.887.16 1.142l3.515 1.892c.473.254.795.015.718-.536l-.2-1.422c.099.025.202.039.309.039a6.184 6.184 0 0 1 6.182 6.185 6.184 6.184 0 0 1-6.182 6.185 6.184 6.184 0 0 1-6.183-6.185 1.237 1.237 0 1 0-2.473 0c0 4.782 3.876 8.659 8.656 8.659 4.78 0 8.655-3.877 8.655-8.66 0-4.782-3.875-8.658-8.655-8.658a1.23 1.23 0 0 0-.627.17z" id="path-1"/><mask id="mask-2" x="-1.826" y="-1.826" width="20.963" height="22.609"><path fill="#fff" d="M9.107 21.218H30.07v22.609H9.107z"/><use xlink:href="#path-1"/></mask></defs><g id="Page-B---iOS" fill="none" fill-rule="evenodd"><g id="B0-會員專區" transform="translate(-16 -247)"><g id="Group-2" transform="translate(0 241)"><g id="Group-7" transform="translate(16 6)"><path id="Rectangle-2" d="M0 0h64v64H0z"/><g id="Group" transform="rotate(-45 44.4 11.1)"><path d="M37.167 2.01v22.187c0 .334-.12.623-.36.867-.24.245-.526.367-.855.366H1.937c-.328 0-.613-.122-.854-.366a1.188 1.188 0 0 1-.36-.867V2.01c0-.333.12-.622.36-.867.24-.244.525-.366.854-.365h34.015c.329 0 .614.122.855.365.24.244.36.533.36.867z" id="Shape" fill="#DF643E"/><path d="M39.1 3.947v22.187c0 .334-.12.623-.36.867-.241.245-.526.366-.855.366H3.87c-.329 0-.614-.122-.854-.366a1.188 1.188 0 0 1-.36-.867V3.947c0-.333.12-.622.36-.867.24-.244.525-.366.854-.365h34.015c.328 0 .613.121.854.365s.361.533.36.867z" id="Shape" fill="#FFF"/><path d="M27.634 16.334c0 .656-.127 1.323-.379 1.999a6.88 6.88 0 0 1-1.074 1.886c-.463.582-1.073 1.056-1.83 1.422a5.632 5.632 0 0 1-2.49.549 5.661 5.661 0 0 1-2.488-.549c-.757-.365-1.367-.839-1.83-1.422a6.91 6.91 0 0 1-1.074-1.886 5.677 5.677 0 0 1-.379-2c0-.657.126-1.324.379-1.999a6.91 6.91 0 0 1 1.073-1.886c.464-.583 1.074-1.057 1.831-1.422a5.661 5.661 0 0 1 2.489-.549c.901 0 1.73.182 2.488.549.758.366 1.368.84 1.831 1.422a6.88 6.88 0 0 1 1.074 1.886c.252.676.379 1.343.379 2zm10.324 4.928v-9.86c-1.341 0-2.486-.482-3.435-1.445-.95-.963-1.424-2.125-1.424-3.486H11.233c0 1.361-.474 2.523-1.423 3.486-.949.963-2.094 1.444-3.435 1.444v9.861c1.341 0 2.486.482 3.435 1.445.949.962 1.423 2.124 1.423 3.485H33.1c0-1.36.475-2.523 1.424-3.485.949-.963 2.094-1.445 3.435-1.445zm2.43-16.023v22.186c0 .334-.12.623-.36.867-.24.245-.525.367-.855.366H5.16c-.33 0-.614-.122-.855-.366a1.188 1.188 0 0 1-.36-.867V5.24c0-.334.12-.623.36-.868.24-.244.525-.366.855-.365h34.014c.329 0 .614.122.855.365.24.244.36.533.36.868z" id="Shape" fill="#DF643E"/><g id="Combined-Shape"><use fill="#DF643E" xlink:href="#path-1"/><use stroke="#FFF" mask="url(#mask-2)" stroke-width="3.652" xlink:href="#path-1"/></g><path d="M18.662 33.235c0-.238.09-.475.271-.656l3.06-3.062a.927.927 0 1 1 1.312 1.312L20.9 33.235l1.53 1.53a.928.928 0 0 1-1.311 1.313l-2.186-2.187a.925.925 0 0 1-.271-.656z" id="Combined-Shape" fill="#DF643E" fill-rule="nonzero"/></g></g></g></g></g></svg>