<svg width="96" height="96" viewBox="0 0 96 96" xmlns="http://www.w3.org/2000/svg"><title>icon_96_peset_password</title><g id="Page-A2~A3---iOS" fill="none" fill-rule="evenodd"><g id="A2.3-重新設定密碼" transform="translate(-140 -100)"><g id="Group-5" transform="translate(140 100)"><path id="Rectangle-8" d="M0 0h96v96H0z"/><path d="M37.149 45.13h22.64v-8.44c0-3.107-1.105-5.759-3.316-7.956-2.21-2.197-4.878-3.296-8.003-3.296s-5.793 1.099-8.003 3.296-3.316 4.85-3.316 7.956v8.44h-.002zm36.789 4.222v25.32c0 1.171-.413 2.167-1.238 2.988-.826.82-1.828 1.23-3.006 1.23h-42.45c-1.178 0-2.18-.41-3.006-1.23C23.413 76.84 23 75.843 23 74.67V49.352c0-1.172.413-2.168 1.238-2.988.825-.82 1.828-1.231 3.006-1.231h1.414v-8.44c0-5.393 1.946-10.023 5.836-13.891C38.385 18.934 43.044 17 48.468 17c5.424 0 10.082 1.934 13.973 5.802 3.89 3.868 5.836 8.498 5.836 13.89v8.44h1.414c1.179 0 2.18.411 3.006 1.232.826.82 1.238 1.816 1.238 2.988h.003z" id="Shape" fill="#B0B3B2"/></g></g></g></svg>