<svg width="24" height="24" viewBox="0 0 24 24" xmlns="http://www.w3.org/2000/svg"><title>icon_24_shot</title><g id="Page-A2~A3---iOS" fill="none" fill-rule="evenodd"><g id="A4.1-學生會員上傳學生證" transform="translate(-203 -313)" fill="#DF643E"><g id="Group-6" transform="translate(36 303)"><g id="Group-2" transform="translate(157)"><g id="Group-4" transform="translate(10 10)"><path d="M12 10.482c.992 0 1.84.355 2.544 1.066a3.518 3.518 0 0 1 1.057 2.568 3.518 3.518 0 0 1-1.057 2.569c-.704.71-1.552 1.066-2.544 1.066-.991 0-1.84-.355-2.544-1.066A3.518 3.518 0 0 1 8.4 14.116c0-1 .352-1.857 1.056-2.568.705-.711 1.553-1.066 2.544-1.066zm8.8-5.25c.884 0 1.638.315 2.263.946.625.63.937 1.392.937 2.284V19.77c0 .891-.312 1.653-.937 2.284A3.068 3.068 0 0 1 20.8 23H3.2a3.068 3.068 0 0 1-2.263-.946A3.128 3.128 0 0 1 0 19.77V8.462c0-.892.312-1.654.937-2.284A3.068 3.068 0 0 1 3.2 5.23H6l.638-1.716c.158-.413.447-.768.868-1.067C7.927 2.15 8.358 2 8.8 2h6.4c.442 0 .873.15 1.294.448.42.299.71.654.868 1.067L18 5.23h2.8zM12 19.77c1.542 0 2.861-.553 3.957-1.66 1.096-1.105 1.643-2.437 1.643-3.994 0-1.556-.547-2.888-1.643-3.994-1.096-1.106-2.415-1.66-3.957-1.66-1.542 0-2.86.554-3.956 1.66C6.948 11.228 6.4 12.56 6.4 14.116c0 1.557.548 2.889 1.644 3.995 1.096 1.106 2.414 1.66 3.956 1.66z" id="Shape"/></g></g></g></g></g></svg>