<svg width="24" height="24" viewBox="0 0 24 24" xmlns="http://www.w3.org/2000/svg"><title>icon_24_service_phone</title><g id="Page-B---iOS" fill="none" fill-rule="evenodd"><g id="B6.1-客服專區---聯絡我們" transform="translate(-16 -142)"><g id="Group-4" transform="translate(16 142)"><g id="Group-5"><g id="Group-3"><g id="Group-2"><path id="Rectangle-2" d="M0 0h24v24H0z"/><path d="M22 17.795c0 .256-.047.59-.142 1.002a5.671 5.671 0 0 1-.299.973c-.199.473-.776.975-1.733 1.505-.89.483-1.77.725-2.642.725-.255 0-.504-.017-.746-.05a6.223 6.223 0 0 1-.817-.177 11.034 11.034 0 0 1-.674-.207 68.12 68.12 0 0 1-.789-.29c-.378-.142-.61-.227-.696-.256a12.87 12.87 0 0 1-2.485-1.179c-1.213-.748-2.465-1.768-3.757-3.06-1.293-1.293-2.313-2.545-3.061-3.758a12.87 12.87 0 0 1-1.179-2.485 32.665 32.665 0 0 0-.255-.696 68.12 68.12 0 0 1-.291-.789 11.034 11.034 0 0 1-.207-.674 6.223 6.223 0 0 1-.177-.817A5.447 5.447 0 0 1 2 6.816c0-.872.242-1.752.725-2.642.53-.957 1.032-1.534 1.505-1.733.237-.104.561-.204.973-.299C5.615 2.047 5.95 2 6.205 2a.79.79 0 0 1 .298.043c.17.057.421.417.753 1.08.103.18.246.435.426.766.18.332.346.632.497.902.151.27.298.523.44.76.03.038.112.156.25.355.137.199.239.367.305.504s.1.272.1.405c0 .19-.135.426-.405.71s-.564.545-.88.781c-.318.237-.611.488-.881.753s-.405.483-.405.653c0 .085.023.192.07.32.048.127.088.225.121.29.034.067.1.18.2.342.098.161.153.251.162.27.72 1.297 1.544 2.41 2.472 3.337.928.928 2.04 1.752 3.338 2.472.019.01.108.064.27.163.16.1.274.165.34.199.067.033.164.074.292.12.127.048.233.072.32.072.17 0 .387-.135.652-.405.266-.27.516-.564.753-.88.236-.318.497-.612.781-.882.284-.27.521-.404.71-.404.133 0 .268.033.405.099.138.066.306.168.505.305.198.138.317.22.354.25.237.142.49.288.76.44.27.152.57.318.902.497.331.18.587.322.767.427.663.331 1.023.582 1.08.752a.79.79 0 0 1 .042.298l.001.001z" id="Shape" fill="#DF643E"/></g></g></g></g></g></g></svg>