<svg width="24" height="24" viewBox="0 0 24 24" xmlns="http://www.w3.org/2000/svg"><title>icon_24_photo</title><g id="Page-A2~A3---iOS" fill="none" fill-rule="evenodd"><g id="A4.1-學生會員上傳學生證" transform="translate(-46 -313)" fill="#DF643E"><g id="Group-6" transform="translate(36 303)"><g id="Group-2"><g id="Group-3" transform="translate(10 10)"><path d="M8 8.542c0 .66-.234 1.22-.7 1.682a2.327 2.327 0 0 1-1.7.693c-.667 0-1.234-.23-1.7-.693a2.279 2.279 0 0 1-.7-1.682c0-.66.232-1.221.7-1.683a2.327 2.327 0 0 1 1.7-.693c.666 0 1.233.231 1.7.693.466.462.7 1.023.7 1.683zm12.8 4.75v5.542H3.2v-2.376L7.198 12.5l2 1.98 6.4-6.334 5.2 5.146zm1.2-8.71H2a.387.387 0 0 0-.281.119.379.379 0 0 0-.12.278v15.042c0 .107.04.2.12.278.079.079.173.118.28.118H22c.108 0 .202-.04.281-.118a.379.379 0 0 0 .12-.278V4.979c0-.107-.04-.2-.12-.278a.387.387 0 0 0-.28-.118zm2 .397v15.042c0 .544-.196 1.01-.587 1.398A1.936 1.936 0 0 1 22 22H2c-.55 0-1.021-.194-1.413-.581A1.896 1.896 0 0 1 0 20.02V4.979c0-.544.196-1.01.587-1.398A1.936 1.936 0 0 1 2 3h20c.55 0 1.021.194 1.413.581.391.388.587.854.587 1.398z" id="Shape"/></g></g></g></g></g></svg>