<svg width="64" height="64" viewBox="0 0 64 64" xmlns="http://www.w3.org/2000/svg"><title>icon_64_member_privacy</title><g id="Page-B---iOS" fill="none" fill-rule="evenodd"><g id="B0-會員專區" transform="translate(-16 -555)"><g id="Group-2" transform="translate(0 549)"><g id="Group-12" transform="translate(16 6)"><path id="Rectangle-2" d="M0 0h64v64H0z"/><g id="file-text2" transform="translate(14 11)" fill="#DF643E"><g id="Group"><path d="M34.304 8.949C35.824 10.963 36 11.94 36 12.5v26.375C36 40.597 34.557 42 32.786 42H3.214C1.443 42 0 40.597 0 38.875V3.125C0 1.401 1.443 0 3.214 0h19.929c.576 0 1.58.171 3.653 1.649 1.217.867 2.64 2.076 4.006 3.405 1.365 1.329 2.61 2.711 3.502 3.895zM8.5 35h19a1.5 1.5 0 0 0 0-3h-19a1.5 1.5 0 0 0 0 3zm0-7h19a1.5 1.5 0 0 0 0-3h-19a1.5 1.5 0 0 0 0 3zm0-7h19a1.5 1.5 0 0 0 0-3h-19a1.5 1.5 0 0 0 0 3zM28.984 6.821a34.845 34.845 0 0 0-3.27-2.835V10H31.9c-.715-.898-1.683-1.98-2.916-3.179z" id="Combined-Shape"/></g></g></g></g></g></g></svg>