<svg width="96" height="96" viewBox="0 0 96 96" xmlns="http://www.w3.org/2000/svg"><title>icon_96_identity</title><g id="Page-A2~A3---iOS" fill="none" fill-rule="evenodd"><g id="A4-會員身份選擇" transform="translate(-140 -100)"><g id="Group-5" transform="translate(140 100)"><path id="Rectangle-8" d="M0 0h96v96H0z"/><path d="M28.666 64.16v3.17h38.665v-3.17c0-6.495-12.837-9.969-19.333-9.969-6.495 0-19.332 3.474-19.332 9.97zm28.999-25.828c0-5.287-4.38-9.666-9.667-9.666s-9.666 4.379-9.666 9.666c0 5.288 4.379 9.666 9.666 9.666 5.288 0 9.667-4.378 9.667-9.666zM19 25.496C19 22.022 21.87 19 25.496 19h45.008C73.978 19 77 22.022 77 25.496v45.008C77 73.978 73.978 77 70.504 77H25.496C21.87 77 19 73.978 19 70.504V25.496z" id="Shape" fill="#B0B3B2"/></g></g></g></svg>