<svg width="24" height="24" viewBox="0 0 24 24" xmlns="http://www.w3.org/2000/svg"><title>icon_24_line_login</title><g id="Page-A2~A3---iOS" fill="none" fill-rule="evenodd"><g id="A2-登入頁" transform="translate(-46 -547)"><g id="Group-10" transform="translate(36 477)"><g id="Group-2" transform="translate(0 60)"><g id="Group-5" transform="translate(10 10)"><path id="Rectangle-3" d="M0 0h24v24H0z"/><g id="Group-4" transform="translate(0 1)"><path d="M23.46 9.547c0-5.263-5.2-9.545-11.593-9.545C5.477.002.275 4.284.275 9.547c0 4.719 4.124 8.67 9.695 9.418.378.082.891.252 1.021.58.117.297.077.763.038 1.063l-.166 1.007c-.05.298-.232 1.163 1.004.634 1.238-.529 6.676-3.988 9.108-6.829 1.68-1.87 2.485-3.766 2.485-5.873" id="Fill-4" fill="#FFF"/><path d="M9.512 7.004H8.7a.227.227 0 0 0-.226.228v5.126c0 .126.101.228.226.228h.813a.227.227 0 0 0 .226-.228V7.232a.227.227 0 0 0-.226-.228" id="Fill-6" fill="#00B900"/><path d="M15.109 7.004h-.813a.227.227 0 0 0-.226.228v3.045l-2.315-3.171a.202.202 0 0 0-.017-.024l-.002-.001-.013-.014-.004-.004-.013-.01-.005-.005-.012-.008a.033.033 0 0 0-.007-.004l-.012-.007-.007-.004a.177.177 0 0 0-.013-.005l-.007-.003a.093.093 0 0 0-.014-.004l-.008-.002c-.004-.002-.008-.003-.013-.003a.072.072 0 0 0-.009-.002l-.012-.001h-.012l-.008-.001h-.813a.227.227 0 0 0-.225.228v5.126c0 .126.1.228.225.228h.813a.227.227 0 0 0 .226-.228V9.314l2.318 3.176a.22.22 0 0 0 .057.056l.003.002.014.009.006.003.01.006c.004 0 .008.003.012.004l.006.003.016.005h.003a.21.21 0 0 0 .058.008h.813a.227.227 0 0 0 .226-.228V7.232c0-.126-.101-.228-.226-.228" id="Fill-8" fill="#00B900"/><path d="M7.552 11.303h-2.21v-4.07a.227.227 0 0 0-.225-.23h-.813a.227.227 0 0 0-.226.23v5.124a.23.23 0 0 0 .063.159l.003.003.004.004c.04.04.095.063.156.063h3.248a.227.227 0 0 0 .226-.229v-.825c0-.126-.101-.23-.226-.23" id="Fill-10" fill="#00B900"/><path d="M19.6 8.287a.227.227 0 0 0 .225-.229v-.825c0-.127-.101-.23-.226-.23h-3.248a.222.222 0 0 0-.157.065l-.003.003-.003.004a.23.23 0 0 0-.063.157v5.125a.229.229 0 0 0 .226.23h3.248a.227.227 0 0 0 .226-.23v-.825c0-.126-.101-.229-.226-.229H17.39v-.866h2.21a.227.227 0 0 0 .225-.23v-.824c0-.127-.101-.23-.226-.23H17.39v-.866h2.21z" id="Fill-12" fill="#00B900"/></g></g></g></g></g></g></svg>