<svg width="96" height="96" viewBox="0 0 96 96" xmlns="http://www.w3.org/2000/svg"><title>icon_96_system_message</title><g id="Page-A2~A3---iOS" fill="none" fill-rule="evenodd"><g id="A2.1-忘記密碼" transform="translate(-140 -100)"><g id="Group-5" transform="translate(140 100)"><path id="Rectangle-8" d="M0 0h96v96H0z"/><path d="M78.24 39.282v26.722c0 1.482-.527 2.75-1.58 3.803-1.053 1.055-2.32 1.582-3.799 1.582h-49.48c-1.479 0-2.745-.527-3.798-1.582-1.053-1.054-1.58-2.321-1.58-3.803V39.282a17.866 17.866 0 0 0 3.397 2.929c8.111 5.52 13.68 9.39 16.705 11.611a80.182 80.182 0 0 0 3.11 2.205c.796.528 1.855 1.066 3.177 1.615 1.323.55 2.555.824 3.697.826h.068c1.143 0 2.376-.275 3.697-.826 1.322-.55 2.38-1.088 3.178-1.615a75.728 75.728 0 0 0 3.11-2.205c3.81-2.759 9.389-6.63 16.739-11.611a18.492 18.492 0 0 0 3.362-2.929h-.004zm0-9.894c0 1.773-.55 3.467-1.648 5.081a16.003 16.003 0 0 1-4.102 4.139c-8.425 5.856-13.669 9.502-15.73 10.938-.225.157-.701.5-1.43 1.027-.727.528-1.332.954-1.814 1.28-.482.325-1.065.69-1.748 1.093a10.25 10.25 0 0 1-1.934.908c-.605.202-1.165.304-1.68.304h-.068c-.516 0-1.076-.102-1.681-.304a10.25 10.25 0 0 1-1.933-.908 34.347 34.347 0 0 1-1.75-1.093 68.955 68.955 0 0 1-1.814-1.28c-.728-.528-1.204-.87-1.428-1.027a1632.27 1632.27 0 0 0-8.808-6.142c-3.832-2.659-6.13-4.257-6.891-4.796-1.39-.943-2.7-2.239-3.933-3.888C18.616 33.07 18 31.538 18 30.125c0-1.75.465-3.208 1.395-4.374.93-1.166 2.257-1.75 3.983-1.751h49.48c1.456 0 2.717.527 3.781 1.581 1.064 1.054 1.596 2.322 1.596 3.803l.004.004z" id="Shape" fill="#B0B3B2"/></g></g></g></svg>