<svg width="64" height="64" viewBox="0 0 64 64" xmlns="http://www.w3.org/2000/svg"><title>icon_64_member_personal</title><g id="Page-B---iOS" fill="none" fill-rule="evenodd"><g id="B0-會員專區" transform="translate(-16 -401)"><g id="Group-2" transform="translate(0 395)"><g id="Group-9" transform="translate(16 6)"><path id="Rectangle-2" d="M0 0h64v64H0z"/><path d="M19.333 42.588v2.077h25.332v-2.077c0-4.256-8.41-6.532-12.666-6.532s-12.666 2.276-12.666 6.532zm18.999-16.922c0-3.464-2.869-6.333-6.333-6.333s-6.333 2.869-6.333 6.333 2.869 6.333 6.333 6.333 6.333-2.869 6.333-6.333zM13 17.256C13 14.98 14.88 13 17.256 13h29.488C49.02 13 51 14.98 51 17.256v29.488C51 49.02 49.02 51 46.744 51H17.256C14.88 51 13 49.02 13 46.744V17.256z" id="Shape" fill="#DF643E"/></g></g></g></g></svg>