<svg width="16" height="16" viewBox="0 0 16 16" xmlns="http://www.w3.org/2000/svg"><title>icon_16_account</title><g id="Page-1" fill="none" fill-rule="evenodd"><g id="icon_16_account" fill="#DF643E"><g id="Page-1"><path d="M2.667 12.529v.804h10.666v-.804C13.333 10.881 9.792 10 8 10c-1.792 0-5.333.881-5.333 2.529zm8-7.196A2.685 2.685 0 0 0 8 2.667a2.685 2.685 0 0 0-2.667 2.666A2.685 2.685 0 0 0 8 8a2.685 2.685 0 0 0 2.667-2.667zM0 1.792C0 .834.792 0 1.792 0h12.416C15.166 0 16 .834 16 1.792v12.416c0 .958-.834 1.792-1.792 1.792H1.792C.792 16 0 15.166 0 14.208V1.792z" id="Shape"/></g></g></g></svg>