<svg width="64" height="64" viewBox="0 0 64 64" xmlns="http://www.w3.org/2000/svg"><title>icon_64_member_ticket</title><g id="Page-B---iOS" fill="none" fill-rule="evenodd"><g id="B0-會員專區" transform="translate(-16 -170)"><g id="Group-2" transform="translate(0 164)"><g id="Group-4" transform="translate(16 6)"><path id="Rectangle-2" d="M0 0h64v64H0z"/><path d="M31.815 21.493a2.784 2.784 0 0 1 3.937.001l6.73 6.73a2.784 2.784 0 0 1 .001 3.936L32.161 42.482a2.784 2.784 0 0 1-3.936-.002l-6.73-6.73a2.784 2.784 0 0 1-.002-3.936l10.322-10.321zm-2.344 30.584c-.615.615-1.367.923-2.256.923-.889 0-1.64-.308-2.255-.923l-3.141-3.14c.93-.93 1.396-2.06 1.396-3.39s-.466-2.46-1.396-3.39c-.93-.931-2.06-1.396-3.39-1.396s-2.46.465-3.39 1.395l-3.116-3.14C11.308 38.4 11 37.649 11 36.76c0-.888.308-1.64.923-2.255l22.606-22.582c.615-.615 1.367-.923 2.256-.923.889 0 1.64.308 2.255.923l3.116 3.115c-.93.93-1.396 2.06-1.396 3.39s.465 2.46 1.396 3.39c.93.931 2.06 1.396 3.39 1.396s2.46-.465 3.39-1.395l3.141 3.115c.615.615.923 1.367.923 2.255 0 .89-.308 1.641-.923 2.256L29.471 52.077z" id="Shape" fill="#DF643E"/></g></g></g></g></svg>