<svg width="24" height="24" viewBox="0 0 24 24" xmlns="http://www.w3.org/2000/svg"><title>link-soundcloud</title><g id="Page-1" fill="none" fill-rule="evenodd"><g id="Artboard" transform="translate(-1058 -249)" fill="#676767"><g id="Group-2" transform="translate(1057 249)"><g id="soundcloud" transform="translate(3 7)"><path d="M.672 8.055L1 6.654.672 5.207C.663 5.164.58 5.131.481 5.131c-.102 0-.184.033-.191.076L0 6.654l.289 1.4c.008.045.09.076.191.076s.183-.03.192-.075zm2.051.777L3 6.668 2.723 3.32c-.009-.084-.114-.152-.239-.152-.127 0-.233.068-.238.152L2 6.668l.246 2.164c.006.086.111.152.238.152.125 0 .23-.066.239-.152zm2.045-.035L5 6.67l-.232-4.457c-.006-.106-.129-.188-.282-.188-.153 0-.275.082-.281.188L4 6.67l.205 2.129c.006.103.129.186.281.186.153-.001.276-.083.282-.188zm2.042-.031L7 6.67l-.19-4.49c-.005-.123-.146-.221-.32-.221-.176 0-.316.098-.321.221L6 6.67l.17 2.096c.004.123.145.221.32.221.175 0 .315-.096.32-.221zm2.04-.028L9 6.672l-.15-5.149c-.004-.142-.164-.255-.358-.255-.194 0-.354.115-.357.256L8 6.67l.135 2.068c.003.141.163.256.357.256.194 0 .354-.113.358-.256zm1.427.258L17.422 9C18.846 9 20 7.883 20 6.506c0-1.377-1.154-2.492-2.578-2.492-.353 0-.689.07-.996.193-.205-2.246-2.153-4.008-4.529-4.008a4.77 4.77 0 0 0-1.648.297c-.196.074-.247.148-.249.295v7.91a.306.306 0 0 0 .277.295z" id="Shape"/></g></g></g></g></svg>