<svg width="24" height="24" viewBox="0 0 24 24" xmlns="http://www.w3.org/2000/svg"><title>link-mail</title><g id="Page-1" fill="none" fill-rule="evenodd"><g id="Artboard" transform="translate(-1093 -249)" fill="#676767"><g id="Group-3" transform="translate(1093 249)"><g id="mail" transform="translate(3 6)"><path d="M.574 1.286l7.5 4.029c.252.135.578.199.906.199.328 0 .654-.064.906-.199l7.5-4.029c.489-.263.951-1.286.054-1.286H.521c-.897 0-.435 1.023.053 1.286zm17.039 2.203L9.886 7.516c-.34.178-.578.199-.906.199-.328 0-.566-.021-.906-.199C7.734 7.338.941 3.777.386 3.488c-.39-.204-.386.035-.386.219V11c0 .42.566 1 1 1h16c.434 0 1-.58 1-1V3.708c0-.184.004-.423-.387-.219z" id="Shape"/></g></g></g></g></svg>