<svg width="219" height="68" viewBox="0 0 219 68" xmlns="http://www.w3.org/2000/svg"><title>Page 1</title><g id="Page-B---iOS" fill="none" fill-rule="evenodd"><g id="B1.4-å®‰è£App(Web)" transform="translate(-78 -205)" fill="#FFF"><g id="Group-6"><g id="Page-1" transform="translate(78 205)"><path d="M65.483 30.436c.573 1.148-.402 2.634-1.125 3.672-.822 1.178-2.121 2.486-3.168 2.635-.939.135-2.247-.382-3.471-.548-7.807-1.067-22.231-2.052-29.354.973-7.29 7.377-16.258 17.428-23.348 24.291-.884.859-1.96 1.77-3.347 1.663-2.65-.202-1.6-4.856-.56-5.926 5.644-5.792 14.187-12.611 27.144-28.13.923-1.161 1.936-2.217 2.885-3.35-4.979 1.105-8.478 2.4-13.9 3.439-1.438.273-3.97 1.083-4.985.585-1.458-.718.236-3.598 1.1-4.603 2.044-2.376 2.78-2.47 6.343-3.945 3.545-1.47 13.697-2.665 14.44-7.335-4.223.466-11.143 2.21-12.087 1.025-.878-2.54 1.364-5.275 3.653-6.148 1.685-.643 4.233-.706 6.389-1.036 6.187-.945 16.804-3.817 23.026-3.829 3.062 1.422-.754 5.185-1.758 6.328-6.292 2.941-12.591 4.092-7.266 5.557 3.182.875 8.001-.745 11.677-.43.962.083 3.692.251 4.02.743.748 1.123-.625 3.18-1.414 4.125-.915 1.095-2.532 2.418-3.753 2.583-.606.081-1.255-.11-1.902-.123-3.509-.075-8.585.496-12.072 1.043-2.805.441-6.342 2.766-7.199 4.958 8.296-1.56 21.23.027 27.986 1.056.84.128 1.704.041 2.046.727" id="Fill-1"/><path d="M216.032 13.637c2.12.676 2.802 2.186 2.58 3.178-.93 4.157-6.372 5.247-7.222 5.592-14.093 5.732-1.78-2.05-3.267-2.125-10.049-.514-20.632-1.378-30.146-1.055-10.165.345-18.842 1.075-27.51 3.487-1.186.326-2.401.917-3.596.697-.514-1.598.452-3.82 1.363-5.218 1.108-1.703 2.815-3.374 4.329-4.87 3.72-3.678 7.945-6.961 12.055-10.154.926-.72 3.276-3.178 4.026-1.459.489 1.13-.472 3.245-1.057 4.157-2.11 3.281-7.515 5.735-10.05 8.592 16.07-3.433 35.704-3.12 54.99-1.394 1.15.104 2.96.399 3.505.572" id="Fill-4"/><path d="M169.131 40.958c3.59 1.356 7.785 3.06 12.045 3.237-2.542-2.63-8.264-3.918-12.045-3.237m10.995-6.25c4.248 1.563 9.005 3.804 7.708 9.665-2.416 10.936-14.011 5.575-20.48 3.8-1.895-.519-8.227-2.62-9.209-3.992-1.34-1.876 1.65-5.697 2.649-6.45 1.446-1.099 3.33-1.828 5.003-2.464 1.792-.682 3.757-.882 5.578-1.344 1.919-.485 8.457-2.092 10.216-2.922-4.936.114-8.923.052-15.916.806-1.483.16-5.481 1.03-7.021.943-1.264-2.454 1.117-6.105 2.776-6.83 1.52-.665 7.585-1.385 11.971-1.806 4.184-.402 12.321-.113 16.136-.053 2.455.044-.527 5.672-1.034 6.462-1.213 1.866-7.232 3.097-8.377 4.186" id="Fill-7"/><path d="M153.706 26.853c1.305 1.072-.343 4.153-1.024 5.33-.409.7-1.242 1.736-1.957 1.964-1.933.613-4.268.4-6.426.641-12.819 1.43-24.306 3.38-33.907 7.612-1.573.696-3.251 1.524-3.154-1.246.16-4.446 4.562-6.335 7.541-7.802 5.457-2.684 11.925-5.59 15.5-8.49-1.606.222-2.09.457-3.983.68-1.296.152-4.134 1.158-4.794.306-1.273-1.641.061-6.046.729-6.876.346-.436 3.082-2.03 3.522-2.355-.658-.636-2.494-.365-3-1.01-1.332-1.704.742-5.628 1.568-6.536 1.993-2.189 5.194.514 7.354 1.33.66.248 1.747.351 2.013.701.85 1.119.003 4.182-.381 5.486 1.342-.155 2.634-.307 4.212-.491 1.216-.143 3.165.012 3.793.584.752.676.354 2.664.074 3.64-.922 3.2-4.672 7.493-6.752 9.257 5.68-1.604 18.245-3.403 19.072-2.725" id="Fill-9"/><path d="M115.974 22.244c1.416 1.49-1.518 6.043-3.426 6.9-1.138.51-11.781 2.19-26.325 6.685-1.416 2.899-3.852 10.34-5.86 12.725-.548.65-1.795 1.828-2.833 1.777-2.329-.116-.217-5.45.24-6.957 2.233-7.399 5.677-14.442 9.416-19.913-2.205 1.648-9.11 5.147-9.383 3.547-1.847 3.322-1.51 6.565-3.436 10.021-.648 1.163-1.252 2.483-1.964 3.383-.448.567-2.182 2.214-3.32 1.983-1.174-.234-.73-3.506-.527-4.82.822-5.234 2.68-9.312 3.37-14.52-1.884.083-4.113 1.709-5.649 1.403-1.673-.334-.474-4.435.19-5.86 1.873-4.01 3.41-7.424 5.347-10.904.634-1.141 2.242-4.564 3.968-3.334 1.141.815-.359 3.77-.79 4.608-1.222 2.373-2.554 4.762-3.4 7.563 1.447.172 3.89-1.557 5.257-1.203 1.314.343.544 2.732.55 4.27 4.07-6.058 8.013-9.472 12.718-15.592.705-.918 2.634-2.627 3.38-3.238 1.02-.839 2.852-1.344 3.013.408.216 2.329-1.237 4.583-2.367 6.266-2.336 3.484-6.51 7.75-8.592 11.275 3.336-2.691 7.617-6.492 11.51-9.339 1.094-.802 5.611-4.319 5.032-.143-.308 2.265-2.32 4.863-3.803 6.643-1.168 1.391-2.246 2.496-2.971 3.624l-.149.086a.96.96 0 0 0 .095-.005c.018-.027.034-.054.054-.081 2.266-1.314 4.966-3.544 8.025-4.749.879-.346 2.319-1.133 3.078-.875 1.916.652-.348 4.66-1.021 5.44-.677.787-1.724 1.476-2.574 2.224-2.48 2.175-5.078 2.797-7.472 5.018 3.836-1.055 19.497-5.498 20.62-4.316" id="Fill-11"/><path d="M54.102 62.26h.548c.432 0 .732-.03.9-.091a.81.81 0 0 0 .4-.307.899.899 0 0 0 .145-.515c0-.35-.134-.606-.407-.765-.198-.12-.564-.179-1.098-.179h-.488v1.858zm-1.728-3.537h1.833c.992 0 1.705.092 2.143.274.438.183.783.477 1.037.886.255.409.38.897.38 1.467 0 .632-.166 1.157-.497 1.575-.332.417-.782.71-1.348.874-.333.095-.94.14-1.82.14v3.831h-1.728v-9.047z" id="Fill-13"/><path id="Fill-15" d="M60.722 58.723h4.956v1.686h-3.24v1.637h3.24v1.652h-3.24v2.38h3.24v1.692h-4.956z"/><path d="M70.402 62.26h.545c.549 0 .928-.071 1.137-.214.208-.146.311-.384.311-.718a.876.876 0 0 0-.154-.515.844.844 0 0 0-.414-.314c-.172-.064-.488-.096-.95-.096h-.475v1.858zm-1.73-3.537h1.834c1.005 0 1.719.09 2.146.267.424.18.768.476 1.026.888.26.417.389.905.389 1.472 0 .595-.144 1.093-.428 1.491-.286.4-.718.703-1.292.908l2.147 4.021h-1.89L70.56 63.94h-.158v3.831h-1.73v-9.047z" id="Fill-17"/><path id="Fill-19" d="M77.175 58.723h4.505v1.68h-2.79v1.643h2.79v1.652h-2.79v4.072h-1.715z"/><path id="Fill-21" d="M84.483 58.723h4.957v1.686h-3.242v1.637h3.242v1.652h-3.242v2.38h3.242v1.692h-4.957z"/><path d="M100.662 60.31l-1.206 1.15c-.824-.866-1.749-1.3-2.776-1.3-.868 0-1.598.295-2.192.89-.593.589-.89 1.319-.89 2.186 0 .604.131 1.14.394 1.608.264.468.635.837 1.115 1.103.48.267 1.016.402 1.605.402.5 0 .958-.094 1.374-.282.415-.185.87-.527 1.37-1.019l1.168 1.218c-.67.652-1.302 1.103-1.9 1.355-.597.251-1.277.378-2.041.378-1.412 0-2.567-.447-3.465-1.338-.9-.892-1.35-2.035-1.35-3.43 0-.902.204-1.703.613-2.405.41-.7.997-1.265 1.76-1.69a4.954 4.954 0 0 1 2.466-.643c.75 0 1.47.158 2.16.475a5.158 5.158 0 0 1 1.795 1.343" id="Fill-23"/><path id="Fill-25" d="M102.537 58.723h5.019v1.693h-1.655v7.354h-1.75v-7.354h-1.614z"/><path id="Fill-27" d="M115.689 58.723h1.672l2.107 6.31 2.127-6.31h1.677l1.523 9.047h-1.674l-.97-5.714-1.925 5.714H118.7l-1.906-5.714-.995 5.714h-1.685z"/><path d="M131.101 61.12l-1.216 3.105h2.427l-1.21-3.104zm-.883-2.397h1.757l3.48 9.047h-1.793l-.711-1.865h-3.705l-.74 1.865h-1.793l3.505-9.047z" id="Fill-29"/><path id="Fill-31" d="M137.158 58.723h5.02v1.693h-1.657v7.354h-1.751v-7.354h-1.612z"/><path d="M152.972 60.31l-1.206 1.15c-.822-.866-1.747-1.3-2.774-1.3-.869 0-1.6.295-2.193.89-.594.589-.89 1.319-.89 2.186 0 .604.13 1.14.393 1.608.265.468.636.837 1.118 1.103.48.267 1.014.402 1.602.402.5 0 .96-.094 1.374-.282.415-.185.872-.527 1.37-1.019l1.17 1.218c-.67.652-1.304 1.103-1.901 1.355-.595.251-1.275.378-2.043.378-1.41 0-2.564-.447-3.465-1.338-.897-.892-1.347-2.035-1.347-3.43 0-.902.204-1.703.613-2.405.411-.7.997-1.265 1.76-1.69a4.955 4.955 0 0 1 2.465-.643c.75 0 1.471.158 2.164.475.692.314 1.29.762 1.79 1.343" id="Fill-33"/><path id="Fill-35" d="M155.744 58.723h1.75v3.415h3.025v-3.415h1.745v9.047h-1.745v-3.965h-3.024v3.965h-1.75z"/></g></g></g></g></svg>