<svg width="153" height="48" viewBox="0 0 153 48" xmlns="http://www.w3.org/2000/svg"><title>logo-gray</title><g id="CI" fill="none" fill-rule="evenodd"><g id="logo-gray" fill="#676767"><path d="M45.749 21.484c.4.81-.282 1.86-.786 2.592-.575.832-1.483 1.755-2.214 1.86-.656.095-1.57-.27-2.425-.387-5.454-.753-15.531-1.448-20.507.687-5.094 5.208-11.359 12.302-16.312 17.147-.618.606-1.369 1.25-2.338 1.174-1.852-.143-1.119-3.428-.392-4.183 3.943-4.09 9.912-8.902 18.964-19.857.645-.82 1.353-1.565 2.016-2.365-3.479.78-5.924 1.695-9.712 2.428-1.004.193-2.773.764-3.482.413-1.019-.507.165-2.54.768-3.25 1.429-1.676 1.943-1.743 4.432-2.784 2.476-1.037 9.569-1.881 10.089-5.178-2.951.33-7.785 1.56-8.445.724-.614-1.793.952-3.724 2.552-4.34 1.177-.454 2.957-.498 4.463-.731 4.323-.667 11.74-2.694 16.087-2.703 2.14 1.004-.527 3.66-1.228 4.467-4.396 2.076-8.797 2.888-5.077 3.923 2.224.617 5.59-.527 8.159-.304.671.058 2.579.177 2.808.525.523.792-.436 2.244-.988 2.911-.639.773-1.769 1.707-2.621 1.823-.424.058-.878-.077-1.33-.086-2.45-.053-5.997.35-8.434.736-1.959.311-4.43 1.952-5.029 3.5 5.796-1.1 14.832.018 19.552.745.587.09 1.19.03 1.43.513" id="Fill-1"/><path d="M150.926 9.626c1.481.477 1.958 1.543 1.803 2.244-.65 2.934-4.451 3.703-5.046 3.947-9.845 4.046-1.243-1.447-2.282-1.5-7.02-.363-14.414-.973-21.061-.745-7.102.243-13.163.759-19.22 2.461-.828.23-1.677.648-2.511.493-.36-1.129.316-2.696.952-3.684.774-1.202 1.966-2.381 3.024-3.438 2.599-2.596 5.55-4.913 8.422-7.167.647-.509 2.289-2.244 2.813-1.03.341.798-.33 2.291-.739 2.935-1.474 2.316-5.25 4.047-7.021 6.064 11.227-2.423 24.944-2.202 38.417-.983.804.073 2.07.28 2.45.403" id="Fill-4"/><path d="M118.16 28.912c2.509.956 5.439 2.16 8.415 2.285-1.776-1.858-5.773-2.766-8.415-2.285m7.682-4.412c2.967 1.103 6.29 2.685 5.385 6.822-1.689 7.72-9.79 3.936-14.309 2.683-1.324-.367-5.747-1.85-6.433-2.818-.937-1.324 1.152-4.022 1.85-4.553 1.011-.776 2.327-1.29 3.496-1.74 1.252-.481 2.624-.622 3.896-.948 1.341-.343 5.91-1.477 7.138-2.063-3.448.08-6.234.036-11.12.57-1.036.112-3.829.726-4.905.664-.883-1.731.781-4.309 1.94-4.82 1.061-.47 5.3-.978 8.363-1.276 2.923-.283 8.608-.08 11.274-.037 1.714.031-.369 4.004-.723 4.561-.847 1.318-5.053 2.187-5.852 2.955" id="Fill-7"/><path d="M107.384 18.955c.911.757-.24 2.931-.716 3.763-.285.493-.867 1.225-1.367 1.385-1.35.433-2.982.283-4.49.454-8.955 1.009-16.98 2.385-23.688 5.372-1.099.492-2.271 1.076-2.203-.88.111-3.137 3.187-4.47 5.268-5.506 3.813-1.895 8.33-3.946 10.829-5.994-1.122.157-1.46.323-2.783.48-.906.108-2.888.818-3.349.217-.89-1.159.043-4.268.509-4.854.242-.307 2.153-1.433 2.46-1.663-.459-.448-1.742-.257-2.095-.712-.93-1.203.518-3.973 1.095-4.614 1.393-1.545 3.63.363 5.138.938.461.176 1.22.249 1.406.496.594.79.002 2.952-.266 3.872l2.943-.347c.85-.1 2.211.01 2.65.413.525.477.247 1.88.052 2.569-.645 2.26-3.265 5.29-4.718 6.534 3.969-1.131 12.747-2.402 13.325-1.923" id="Fill-9"/><path d="M81.023 15.702c.989 1.052-1.06 4.266-2.393 4.87-.796.36-8.231 1.547-18.392 4.719-.99 2.046-2.69 7.3-4.094 8.982-.383.46-1.254 1.29-1.98 1.254-1.626-.08-.151-3.847.168-4.91 1.56-5.223 3.967-10.194 6.579-14.056-1.541 1.163-6.364 3.633-6.555 2.503-1.29 2.345-1.055 4.634-2.4 7.074-.454.821-.876 1.753-1.373 2.388-.313.4-1.524 1.563-2.32 1.4-.82-.165-.51-2.475-.367-3.403.574-3.694 1.872-6.573 2.353-10.25-1.315.06-2.873 1.207-3.946.991-1.169-.235-.331-3.13.133-4.136 1.308-2.831 2.382-5.24 3.736-7.697.442-.806 1.566-3.221 2.772-2.353.797.575-.251 2.66-.553 3.252-.853 1.676-1.784 3.362-2.374 5.339 1.01.121 2.717-1.099 3.672-.85.918.243.38 1.93.384 3.015 2.844-4.277 5.598-6.686 8.886-11.006.492-.648 1.84-1.855 2.36-2.286.713-.592 1.993-.949 2.106.288.15 1.644-.864 3.235-1.654 4.423-1.632 2.46-4.548 5.47-6.003 7.959 2.33-1.9 5.322-4.582 8.042-6.592.764-.566 3.92-3.049 3.516-.1-.216 1.597-1.621 3.432-2.658 4.688-.815.982-1.569 1.762-2.076 2.558l-.103.06a.664.664 0 0 0 .066-.003c.013-.018.024-.038.037-.057 1.584-.927 3.47-2.502 5.607-3.352.614-.244 1.62-.8 2.15-.618 1.34.46-.242 3.29-.713 3.84-.473.556-1.204 1.042-1.798 1.57-1.733 1.536-3.548 1.974-5.22 3.543 2.68-.746 13.621-3.882 14.405-3.047" id="Fill-11"/><path d="M37.797 43.949h.383c.302 0 .512-.022.63-.065a.567.567 0 0 0 .279-.216.64.64 0 0 0 .1-.364c0-.247-.093-.428-.284-.54-.138-.084-.394-.127-.767-.127h-.34v1.312zm-1.207-2.497h1.28c.693 0 1.192.065 1.498.193.306.129.547.337.724.625.178.289.266.633.266 1.036 0 .446-.116.817-.347 1.112a1.81 1.81 0 0 1-.942.617c-.233.067-.657.098-1.272.098v2.705H36.59v-6.386z" id="Fill-13"/><path id="Fill-15" d="M42.422 41.451h3.463v1.19H43.62v1.156h2.264v1.166H43.62v1.68h2.264v1.195h-3.463z"/><path d="M49.185 43.949h.38c.384 0 .65-.05.795-.152.146-.103.217-.27.217-.507 0-.139-.036-.26-.107-.363a.59.59 0 0 0-.29-.222c-.12-.045-.34-.068-.663-.068h-.332v1.312zm-1.209-2.497h1.282c.702 0 1.2.062 1.499.188.296.127.536.336.717.627.18.294.271.639.271 1.039 0 .42-.1.771-.298 1.053-.2.282-.502.495-.903.64l1.5 2.839h-1.32l-1.429-2.705h-.11v2.705h-1.209v-6.386z" id="Fill-17"/><path id="Fill-19" d="M53.917 41.451h3.147v1.186h-1.95v1.16h1.95v1.166h-1.95v2.875h-1.197z"/><path id="Fill-21" d="M59.023 41.451h3.462v1.19H60.22v1.156h2.265v1.166H60.22v1.68h2.265v1.195h-3.462z"/><path d="M70.326 42.572l-.843.812c-.576-.612-1.222-.918-1.94-.918-.606 0-1.116.208-1.53.627-.415.417-.623.932-.623 1.544 0 .427.092.804.276 1.135.184.33.443.59.779.779.336.188.71.283 1.121.283.349 0 .67-.066.96-.199.29-.13.607-.371.957-.719l.816.86c-.468.46-.91.778-1.327.957a3.617 3.617 0 0 1-1.426.266c-.987 0-1.793-.315-2.421-.944-.628-.63-.943-1.437-.943-2.421 0-.637.142-1.202.428-1.698a3.197 3.197 0 0 1 1.23-1.193 3.433 3.433 0 0 1 1.722-.454 3.55 3.55 0 0 1 1.51.335c.485.222.903.538 1.254.948" id="Fill-23"/><path id="Fill-25" d="M71.635 41.451h3.507v1.196h-1.157v5.19h-1.222v-5.19h-1.128z"/><path id="Fill-27" d="M80.824 41.451h1.168l1.472 4.455 1.486-4.455h1.172l1.064 6.387h-1.17l-.678-4.034-1.345 4.034h-1.065l-1.331-4.034-.696 4.034h-1.177z"/><path d="M91.591 43.144l-.85 2.191h1.696l-.846-2.19zm-.617-1.693h1.228l2.43 6.387H93.38l-.497-1.317h-2.588l-.517 1.317h-1.253l2.45-6.387z" id="Fill-29"/><path id="Fill-31" d="M95.822 41.451h3.508v1.196h-1.158v5.19h-1.223v-5.19h-1.127z"/><path d="M106.87 42.572l-.842.812c-.574-.612-1.22-.918-1.938-.918-.607 0-1.117.208-1.532.627-.414.417-.621.932-.621 1.544 0 .427.09.804.274 1.135.185.33.444.59.78.779.337.188.71.283 1.12.283.35 0 .671-.066.96-.199.29-.13.61-.371.957-.719l.818.86c-.468.46-.911.778-1.329.957-.415.177-.89.266-1.426.266-.985 0-1.792-.315-2.421-.944-.627-.63-.941-1.437-.941-2.421 0-.637.142-1.202.428-1.698a3.201 3.201 0 0 1 1.23-1.193 3.434 3.434 0 0 1 1.721-.454c.524 0 1.028.112 1.512.335a3.59 3.59 0 0 1 1.25.948" id="Fill-33"/><path id="Fill-35" d="M108.808 41.451h1.223v2.411h2.113v-2.41h1.218v6.386h-1.218v-2.8h-2.113v2.8h-1.223z"/></g></g></svg>