<svg width="140" height="76" viewBox="0 0 140 76" xmlns="http://www.w3.org/2000/svg"><title>logo</title><g id="CI" fill="none" fill-rule="evenodd"><g id="logo" transform="translate(0 16)"><path d="M41.862 19.694c.366.743-.258 1.704-.72 2.376-.526.762-1.356 1.609-2.025 1.705-.6.087-1.436-.248-2.22-.355-4.99-.69-14.21-1.328-18.764.63-4.66 4.773-10.394 11.277-14.926 15.718-.565.555-1.252 1.145-2.14 1.076-1.694-.13-1.023-3.142-.358-3.835 3.609-3.748 9.07-8.16 17.353-18.202.59-.751 1.237-1.434 1.844-2.168-3.183.716-5.42 1.554-8.886 2.226-.919.177-2.538.7-3.186.378-.933-.464.15-2.328.703-2.978 1.307-1.537 1.777-1.598 4.054-2.552 2.267-.952 8.757-1.725 9.232-4.747-2.7.302-7.123 1.43-7.727.664-.561-1.644.872-3.414 2.335-3.979 1.077-.415 2.706-.457 4.084-.67 3.955-.611 10.743-2.47 14.72-2.477 1.958.92-.482 3.355-1.123 4.094-4.023 1.903-8.05 2.648-4.646 3.596 2.035.566 5.116-.483 7.465-.278.615.053 2.36.162 2.57.48.478.727-.4 2.058-.904 2.67-.585.708-1.619 1.564-2.399 1.67-.388.053-.802-.07-1.216-.079-2.243-.049-5.488.321-7.717.675-1.793.286-4.054 1.79-4.602 3.208 5.303-1.009 13.572.017 17.89.684.538.082 1.09.026 1.309.47" id="Fill-1" fill="#DF643E"/><path d="M138.102 8.824c1.355.437 1.792 1.414 1.65 2.056-.594 2.69-4.073 3.395-4.617 3.619-9.009 3.709-1.137-1.326-2.088-1.376-6.424-.332-13.19-.891-19.272-.682-6.498.223-12.045.695-17.586 2.256-.758.212-1.535.594-2.299.451-.328-1.034.29-2.47.871-3.376.709-1.102 1.8-2.183 2.768-3.152 2.378-2.379 5.079-4.504 7.706-6.57.592-.466 2.094-2.056 2.574-.943.312.73-.302 2.1-.676 2.69-1.349 2.122-4.804 3.71-6.424 5.559 10.272-2.221 22.824-2.019 35.152-.902.736.067 1.894.258 2.241.37" id="Fill-4" fill="#DF643E"/><path d="M108.12 26.502c2.296.877 4.977 1.98 7.7 2.095-1.625-1.703-5.283-2.536-7.7-2.095m7.03-4.043c2.714 1.01 5.756 2.46 4.927 6.253-1.545 7.076-8.958 3.607-13.093 2.46-1.211-.337-5.259-1.697-5.886-2.584-.858-1.214 1.054-3.687 1.692-4.174.925-.71 2.13-1.183 3.199-1.594 1.146-.442 2.401-.57 3.566-.87 1.226-.314 5.406-1.353 6.53-1.89-3.155.073-5.704.033-10.174.521-.948.103-3.504.666-4.488.61-.808-1.588.714-3.95 1.774-4.419.971-.43 4.85-.896 7.653-1.17 2.674-.259 7.876-.072 10.315-.033 1.57.028-.337 3.67-.66 4.181-.776 1.208-4.624 2.004-5.356 2.709" id="Fill-7" fill="#DF643E"/><path d="M98.26 17.375c.834.694-.22 2.688-.655 3.45-.261.452-.794 1.122-1.25 1.27-1.237.397-2.73.259-4.11.415-8.194.925-15.537 2.187-21.675 4.925-1.005.45-2.078.986-2.016-.806.102-2.877 2.916-4.099 4.82-5.048 3.49-1.737 7.624-3.617 9.91-5.494-1.027.144-1.336.296-2.547.44-.829.098-2.642.75-3.064.198-.814-1.062.039-3.912.465-4.449.222-.282 1.97-1.313 2.252-1.524-.42-.411-1.594-.236-1.918-.653-.852-1.103.475-3.642 1.003-4.23 1.274-1.416 3.32.333 4.7.86.423.162 1.118.228 1.287.455.544.723.002 2.706-.243 3.55.858-.1 1.684-.2 2.693-.319.777-.092 2.023.009 2.424.379.481.437.227 1.723.048 2.354-.59 2.072-2.987 4.849-4.317 5.99 3.632-1.037 11.664-2.201 12.192-1.763" id="Fill-9" fill="#DF643E"/><path d="M74.139 14.393c.905.964-.971 3.91-2.19 4.465-.728.33-7.532 1.417-16.83 4.325-.905 1.876-2.462 6.692-3.745 8.234-.351.421-1.148 1.183-1.811 1.15-1.49-.075-.14-3.527.153-4.502 1.427-4.787 3.629-9.344 6.02-12.884-1.41 1.066-5.824 3.33-5.999 2.295-1.18 2.149-.965 4.247-2.196 6.484-.415.753-.8 1.606-1.256 2.19-.287.366-1.395 1.432-2.122 1.282-.75-.151-.467-2.269-.337-3.119.525-3.386 1.713-6.025 2.154-9.396-1.204.055-2.63 1.107-3.611.909-1.07-.216-.303-2.87.122-3.792 1.196-2.595 2.179-4.803 3.418-7.056.405-.738 1.433-2.953 2.536-2.157.73.527-.23 2.44-.505 2.982-.781 1.535-1.633 3.081-2.173 4.893.925.112 2.487-1.007 3.36-.778.84.222.348 1.768.351 2.763 2.603-3.92 5.123-6.129 8.131-10.089.451-.594 1.684-1.7 2.16-2.095.652-.543 1.824-.87 1.927.264.138 1.507-.791 2.966-1.513 4.054-1.494 2.255-4.162 5.015-5.493 7.296 2.133-1.741 4.87-4.2 7.359-6.043.699-.519 3.586-2.795 3.216-.092-.197 1.465-1.483 3.147-2.431 4.298-.747.9-1.436 1.615-1.9 2.345a5.55 5.55 0 0 0-.095.055c.021 0 .041-.001.06-.003.013-.017.023-.035.035-.052 1.45-.85 3.175-2.293 5.13-3.073.562-.224 1.483-.733 1.968-.566 1.225.422-.222 3.015-.652 3.52-.433.51-1.103.955-1.646 1.439-1.585 1.407-3.246 1.81-4.776 3.247 2.452-.683 12.464-3.558 13.18-2.793" id="Fill-11" fill="#DF643E"/><path d="M34.586 40.286h.35c.276 0 .468-.02.576-.06a.519.519 0 0 0 .256-.197.587.587 0 0 0 .092-.334c0-.226-.086-.392-.26-.495-.127-.077-.36-.116-.702-.116h-.312v1.202zm-1.105-2.289h1.172c.634 0 1.09.06 1.37.178s.5.308.663.573c.163.264.243.58.243.949 0 .409-.106.749-.318 1.02-.212.269-.5.459-.862.565-.213.061-.6.09-1.163.09v2.48H33.48v-5.855z" id="Fill-13" fill="#626867"/><path id="Fill-15" fill="#626867" d="M38.817 37.997h3.17v1.091h-2.073v1.06h2.072v1.068h-2.072v1.54h2.072v1.095h-3.169z"/><path d="M45.006 40.286h.348c.351 0 .594-.046.727-.138.133-.095.199-.249.199-.465a.572.572 0 0 0-.098-.333.54.54 0 0 0-.265-.203c-.11-.042-.312-.063-.607-.063h-.304v1.202zM43.9 37.997h1.172c.643 0 1.1.058 1.372.173.271.116.491.308.656.575.166.27.249.585.249.952 0 .385-.092.707-.274.965-.183.259-.459.455-.826.587l1.373 2.602h-1.208l-1.307-2.479h-.101v2.48H43.9v-5.855z" id="Fill-17" fill="#626867"/><path id="Fill-19" fill="#626867" d="M49.336 37.997h2.88v1.087h-1.784v1.063h1.784v1.07h-1.784v2.634h-1.096z"/><path id="Fill-21" fill="#626867" d="M54.008 37.997h3.168v1.091h-2.072v1.06h2.072v1.068h-2.072v1.54h2.072v1.095h-3.168z"/><path d="M64.35 39.025l-.771.744c-.526-.561-1.118-.842-1.775-.842a1.89 1.89 0 0 0-1.4.575c-.38.382-.57.854-.57 1.415 0 .391.084.737.252 1.04.169.304.406.542.713.715.307.172.65.26 1.026.26.32 0 .612-.061.878-.183.266-.12.556-.34.876-.659l.747.788c-.429.422-.832.713-1.215.877a3.304 3.304 0 0 1-1.305.245c-.902 0-1.64-.29-2.215-.866-.575-.577-.863-1.317-.863-2.22 0-.583.13-1.102.393-1.556a2.928 2.928 0 0 1 1.125-1.093 3.137 3.137 0 0 1 1.576-.416c.479 0 .94.102 1.381.307a3.3 3.3 0 0 1 1.147.869" id="Fill-23" fill="#626867"/><path id="Fill-25" fill="#626867" d="M65.549 37.997h3.208v1.096H67.7v4.758H66.58v-4.758H65.55z"/><path id="Fill-27" fill="#626867" d="M73.956 37.997h1.07l1.346 4.083 1.36-4.083h1.072l.974 5.854h-1.07l-.62-3.697-1.231 3.697h-.975l-1.219-3.697-.636 3.697H72.95z"/><path d="M83.809 39.549l-.778 2.008h1.552l-.774-2.008zm-.564-1.552h1.123l2.224 5.854h-1.146l-.455-1.207h-2.368l-.473 1.207h-1.146l2.24-5.854z" id="Fill-29" fill="#626867"/><path id="Fill-31" fill="#626867" d="M87.68 37.997h3.21v1.096h-1.06v4.758h-1.119v-4.758h-1.03z"/><path d="M97.79 39.025l-.77.744c-.526-.561-1.117-.842-1.774-.842-.555 0-1.022.19-1.402.575-.38.382-.569.854-.569 1.415 0 .391.084.737.252 1.04.169.304.406.542.714.715.307.172.648.26 1.024.26.32 0 .614-.061.878-.183.266-.12.558-.34.876-.659l.748.788c-.428.422-.833.713-1.215.877-.38.162-.815.245-1.306.245-.901 0-1.639-.29-2.215-.866-.573-.577-.86-1.317-.86-2.22 0-.583.13-1.102.39-1.556a2.931 2.931 0 0 1 1.126-1.093 3.138 3.138 0 0 1 1.576-.416c.479 0 .94.102 1.383.307.442.203.825.493 1.144.869" id="Fill-33" fill="#626867"/><path id="Fill-35" fill="#626867" d="M99.562 37.997h1.12v2.21h1.933v-2.21h1.115v5.854h-1.115v-2.565h-1.933v2.565h-1.12z"/></g></g></svg>