<svg width="126" height="56" viewBox="0 0 126 56" xmlns="http://www.w3.org/2000/svg"><title>logo-small</title><g id="CI" fill="none" fill-rule="evenodd"><g id="logo" transform="translate(12 12)"><path d="M30.5 14.323c.266.54-.188 1.24-.525 1.728-.383.554-.988 1.17-1.476 1.24-.437.063-1.046-.18-1.616-.258-3.636-.502-10.354-.966-13.672.458-3.396 3.471-7.572 8.201-10.874 11.431-.412.404-.913.833-1.559.782-1.234-.095-.746-2.285-.261-2.788 2.629-2.726 6.608-5.935 12.642-13.238.43-.546.902-1.043 1.344-1.577-2.319.52-3.949 1.13-6.474 1.619-.67.129-1.85.51-2.321.275-.68-.338.11-1.693.512-2.166.952-1.118 1.295-1.162 2.954-1.856 1.651-.692 6.38-1.255 6.726-3.452-1.967.22-5.19 1.04-5.63.482-.41-1.195.635-2.482 1.701-2.893.785-.302 1.972-.332 2.976-.487 2.881-.445 7.827-1.797 10.725-1.802 1.425.669-.352 2.44-.82 2.978-2.93 1.384-5.864 1.925-3.384 2.615 1.482.411 3.727-.351 5.44-.202.447.038 1.718.117 1.871.35.349.527-.29 1.495-.658 1.94-.426.515-1.18 1.138-1.748 1.216-.283.038-.585-.052-.886-.058-1.634-.036-3.998.233-5.623.49-1.306.208-2.953 1.302-3.353 2.334 3.864-.734 9.889.012 13.035.497.391.06.794.02.953.342" id="Fill-1" fill="#DF643E"/><path d="M100.617 6.417c.988.318 1.306 1.029 1.202 1.496-.433 1.956-2.967 2.469-3.363 2.631-6.564 2.698-.829-.964-1.522-1-4.68-.242-9.61-.648-14.04-.496-4.735.162-8.776.506-12.814 1.64-.552.155-1.118.432-1.674.329-.24-.752.21-1.797.634-2.456.516-.801 1.311-1.587 2.017-2.292 1.732-1.73 3.7-3.275 5.614-4.778.432-.339 1.526-1.495 1.876-.686.227.531-.22 1.527-.493 1.956-.983 1.544-3.5 2.699-4.68 4.043 7.484-1.615 16.628-1.468 25.61-.656.537.05 1.38.188 1.633.27" id="Fill-4" fill="#DF643E"/><path d="M78.774 19.274c1.672.638 3.625 1.44 5.61 1.524-1.185-1.238-3.85-1.844-5.61-1.524m5.12-2.94c1.979.735 4.194 1.79 3.59 4.547-1.125 5.147-6.526 2.624-9.538 1.789-.883-.244-3.832-1.234-4.29-1.879-.624-.883.769-2.68 1.234-3.035.674-.517 1.551-.86 2.33-1.16.835-.32 1.75-.415 2.598-.632.894-.229 3.94-.985 4.759-1.375-2.3.053-4.156.024-7.413.38-.691.074-2.553.484-3.27.443-.589-1.155.52-2.873 1.292-3.214.708-.313 3.533-.652 5.576-.85 1.949-.19 5.739-.054 7.516-.025 1.143.02-.246 2.669-.482 3.04-.565.88-3.368 1.458-3.902 1.97" id="Fill-7" fill="#DF643E"/><path d="M71.589 12.637c.608.504-.16 1.954-.477 2.508-.19.329-.578.817-.911.924-.9.289-1.988.188-2.993.302-5.97.673-11.32 1.59-15.793 3.582-.732.328-1.514.717-1.468-.587.074-2.092 2.124-2.98 3.512-3.67 2.541-1.264 5.554-2.631 7.219-3.997-.748.105-.973.216-1.855.32-.604.072-1.925.546-2.233.145-.593-.773.028-2.846.34-3.236.16-.205 1.435-.955 1.64-1.108-.307-.3-1.162-.172-1.398-.475-.62-.803.346-2.65.73-3.076.93-1.03 2.42.242 3.426.625.308.117.814.166.937.33.396.527.002 1.969-.177 2.582l1.962-.231c.566-.067 1.474.006 1.767.275.35.318.164 1.254.034 1.712-.43 1.507-2.176 3.527-3.145 4.357 2.646-.755 8.498-1.601 8.883-1.282" id="Fill-9" fill="#DF643E"/><path d="M54.015 10.468c.66.701-.707 2.844-1.595 3.247-.53.24-5.488 1.03-12.262 3.146-.659 1.364-1.793 4.866-2.728 5.988-.256.306-.837.86-1.32.836-1.085-.054-.101-2.565.111-3.274 1.04-3.482 2.645-6.796 4.386-9.37-1.027.775-4.242 2.422-4.37 1.669-.86 1.563-.703 3.089-1.6 4.716-.302.547-.583 1.168-.915 1.592-.209.266-1.016 1.041-1.546.933-.547-.11-.34-1.65-.246-2.269.383-2.463 1.248-4.382 1.57-6.833-.878.04-1.916.805-2.631.66-.78-.156-.221-2.087.089-2.757.871-1.887 1.587-3.493 2.49-5.131.295-.537 1.044-2.148 1.848-1.57.531.384-.167 1.775-.369 2.17-.569 1.116-1.189 2.24-1.583 3.558.674.081 1.812-.732 2.449-.566.612.161.253 1.286.255 2.01 1.897-2.851 3.733-4.458 5.924-7.338C42.301 1.453 43.2.65 43.546.362c.475-.395 1.329-.633 1.404.192.1 1.095-.576 2.156-1.102 2.948-1.089 1.64-3.033 3.647-4.003 5.306 1.554-1.267 3.548-3.055 5.362-4.395.51-.377 2.613-2.032 2.343-.067-.143 1.066-1.08 2.289-1.771 3.126-.544.655-1.046 1.174-1.384 1.705a4.045 4.045 0 0 0-.07.04c.016 0 .03 0 .045-.002l.025-.038c1.056-.618 2.313-1.668 3.738-2.234.409-.163 1.08-.534 1.433-.412.893.307-.161 2.192-.475 2.56-.316.37-.803.694-1.199 1.046-1.155 1.024-2.365 1.317-3.48 2.362 1.786-.497 9.08-2.587 9.603-2.031" id="Fill-11" fill="#DF643E"/><path d="M25.198 29.3h.256c.2 0 .34-.015.419-.044.079-.03.14-.077.186-.144a.426.426 0 0 0 .067-.243c0-.165-.062-.285-.19-.36-.091-.056-.262-.084-.51-.084h-.228v.874zm-.805-1.666h.854c.462 0 .794.044.998.13.204.085.365.224.483.416.119.193.177.422.177.69 0 .298-.077.545-.231.742a1.207 1.207 0 0 1-.628.411c-.155.045-.438.066-.848.066v1.803h-.805v-4.258z" id="Fill-13" fill="#626867"/><path id="Fill-15" fill="#626867" d="M28.281 27.634h2.309v.794h-1.51v.77h1.51v.778h-1.51v1.12h1.51v.796H28.28z"/><path d="M32.79 29.3h.254c.255 0 .432-.035.53-.102.096-.068.144-.18.144-.338a.415.415 0 0 0-.071-.242.393.393 0 0 0-.193-.148c-.08-.03-.228-.045-.443-.045h-.221v.874zm-.806-1.666h.854c.468 0 .801.042 1 .126.197.084.357.224.478.418.12.196.18.426.18.692 0 .28-.066.515-.198.702-.134.188-.335.33-.602.428l1 1.892h-.88l-.952-1.803h-.074v1.803h-.806v-4.258z" id="Fill-17" fill="#626867"/><path id="Fill-19" fill="#626867" d="M35.945 27.634h2.098v.79h-1.3v.774h1.3v.778h-1.3v1.916h-.798z"/><path id="Fill-21" fill="#626867" d="M39.348 27.634h2.309v.794h-1.51v.77h1.51v.778h-1.51v1.12h1.51v.796h-2.309z"/><path d="M46.884 28.382l-.562.54c-.384-.407-.814-.611-1.293-.611-.404 0-.744.138-1.02.418a1.402 1.402 0 0 0-.416 1.029c0 .284.062.536.184.757.123.22.296.393.52.519.223.126.473.189.747.189.233 0 .446-.044.64-.133.193-.087.405-.248.638-.479l.544.573c-.312.307-.606.519-.885.638a2.411 2.411 0 0 1-.95.178c-.658 0-1.196-.21-1.614-.63-.42-.42-.63-.958-.63-1.614 0-.425.096-.802.287-1.132.19-.33.464-.596.82-.795a2.289 2.289 0 0 1 1.148-.303c.349 0 .684.075 1.006.224.323.147.602.358.836.632" id="Fill-23" fill="#626867"/><path id="Fill-25" fill="#626867" d="M47.757 27.634h2.338v.797h-.771v3.46h-.816v-3.46h-.751z"/><path id="Fill-27" fill="#626867" d="M53.882 27.634h.78l.98 2.97.991-2.97h.781l.71 4.258h-.78l-.452-2.689-.897 2.689h-.71l-.887-2.689-.464 2.689h-.784z"/><path d="M61.06 28.763l-.566 1.46h1.13l-.563-1.46zm-.41-1.129h.818l1.62 4.258h-.835l-.33-.878h-1.726l-.345.878h-.835l1.633-4.258z" id="Fill-29" fill="#626867"/><path id="Fill-31" fill="#626867" d="M63.882 27.634h2.338v.797h-.772v3.46h-.815v-3.46h-.751z"/><path d="M71.247 28.382l-.561.54c-.383-.407-.814-.611-1.293-.611a1.38 1.38 0 0 0-1.021.418 1.401 1.401 0 0 0-.414 1.029c0 .284.06.536.183.757.123.22.296.393.52.519a1.5 1.5 0 0 0 .747.189c.232 0 .447-.044.64-.133.193-.087.406-.248.638-.479l.544.573c-.311.307-.607.519-.885.638a2.404 2.404 0 0 1-.951.178c-.657 0-1.195-.21-1.614-.63-.418-.42-.627-.958-.627-1.614 0-.425.095-.802.285-1.132.191-.33.464-.596.82-.795a2.29 2.29 0 0 1 1.148-.303c.349 0 .685.075 1.007.224.323.147.602.358.834.632" id="Fill-33" fill="#626867"/><path id="Fill-35" fill="#626867" d="M72.538 27.634h.816v1.607h1.408v-1.607h.813v4.258h-.813v-1.866h-1.408v1.866h-.816z"/></g></g></svg>